<?xml version="1.0" encoding="utf-8"?>
<!-- Generator: Adobe Illustrator 21.0.0, SVG Export Plug-In . SVG Version: 6.00 Build 0)  -->
<svg version="1.1" id="Capa_1" xmlns="http://www.w3.org/2000/svg" xmlns:xlink="http://www.w3.org/1999/xlink" x="0px" y="0px"
	 viewBox="0 0 468 468" style="enable-background:new 0 0 468 468;" xml:space="preserve">
<g>
	<g>
		<path d="M450.1,187.5l-10.2-10.8l-35.8-96.5C398,63.9,382.4,53.1,365,53H109.3c-17.4,0-33,10.9-39.1,27.2l-35.3,95.3l-14.7,13.6
			C7.4,200,0,216,0,232.8v140.6c0.1,23,18.8,41.6,41.8,41.6h26.4c23,0,41.7-18.6,41.8-41.6V353h248v20.4c0.1,23,18.8,41.6,41.8,41.6
			h26.4c23,0,41.7-18.6,41.8-41.6V229.1C467.9,213.4,461.5,198.4,450.1,187.5z M89,87c3.2-8.5,11.3-14,20.3-14h255.8
			c9,0,17.1,5.6,20.3,14l31.2,84h-23.3c-5.5-37.5-40.4-63.4-77.9-57.8c-29.9,4.4-53.4,27.9-57.8,57.8H57.8L89,87z M372.9,171h-95.1
			c5.5-26.3,31.3-43.1,57.6-37.6C354.2,137.4,368.9,152.1,372.9,171z M90,373.4c-0.1,12-9.8,21.6-21.8,21.6H41.8
			c-12,0-21.7-9.6-21.8-21.6v-26.2c6,3.9,13.9,5.8,21.8,5.8H90V373.4z M448,373.4c-0.1,12-9.8,21.6-21.8,21.6h-26.4
			c-12,0-21.7-9.7-21.8-21.6V353h48.2c7.9,0,15.8-1.9,21.8-5.8L448,373.4L448,373.4z M426.2,333H41.8c-11.9,0.1-21.7-9.4-21.8-21.4
			v-78.8c0-11,4.9-21.5,13.3-28.6c0.1-0.1,0.3-0.3,0.4-0.4L47.3,191H426l9.6,10.3c0.1,0.2,0.4,0.3,0.5,0.5
			c7.5,7.1,11.8,17,11.8,27.3v82.5h0.1C447.9,323.5,438.1,333.1,426.2,333z"/>
	</g>
</g>
<path d="M338,206.9c-13.1,0-25.2,4.6-34.7,12.3c-9.5-7.7-21.5-12.3-34.7-12.3c-13.1,0-25.2,4.6-34.7,12.3
	c-9.5-7.7-21.5-12.3-34.7-12.3c-13.1,0-25.2,4.6-34.7,12.3c-9.5-7.7-21.5-12.3-34.7-12.3c-30.4,0-55,24.6-55,55s24.6,55,55,55
	c13.1,0,25.2-4.6,34.7-12.3c9.5,7.7,21.5,12.3,34.7,12.3c13.1,0,25.2-4.6,34.7-12.3c9.5,7.7,21.5,12.3,34.7,12.3
	c13.1,0,25.2-4.6,34.7-12.3c9.5,7.7,21.5,12.3,34.7,12.3c30.4,0,55-24.6,55-55S368.3,206.9,338,206.9z M303.3,286.6
	c-5-7-7.9-15.5-7.9-24.7c0-9.2,2.9-17.7,7.9-24.7c5,7,7.9,15.5,7.9,24.7C311.2,271.1,308.3,279.7,303.3,286.6z M234,286.6
	c-5-7-7.9-15.5-7.9-24.7c0-9.2,2.9-17.7,7.9-24.7c5,7,7.9,15.5,7.9,24.7C241.9,271.1,239,279.7,234,286.6z M164.7,286.6
	c-5-7-7.9-15.5-7.9-24.7c0-9.2,2.9-17.7,7.9-24.7c5,7,7.9,15.5,7.9,24.7C172.6,271.1,169.7,279.7,164.7,286.6z M87.5,261.9
	c0-23.5,19.1-42.6,42.6-42.6c9.8,0,18.7,3.3,25.9,8.8c-7.3,9.3-11.6,21-11.6,33.8c0,12.7,4.3,24.4,11.6,33.8
	c-7.2,5.5-16.2,8.8-25.9,8.8C106.5,304.5,87.5,285.4,87.5,261.9z M173.4,295.7c7.3-9.3,11.6-21,11.6-33.8c0-12.7-4.3-24.4-11.6-33.8
	c7.2-5.5,16.2-8.8,25.9-8.8c9.8,0,18.7,3.3,25.9,8.8c-7.3,9.3-11.6,21-11.6,33.8c0,12.7,4.3,24.4,11.6,33.8
	c-7.2,5.5-16.2,8.8-25.9,8.8C189.6,304.5,180.6,301.2,173.4,295.7z M242.7,295.7c7.3-9.3,11.6-21,11.6-33.8
	c0-12.7-4.3-24.4-11.6-33.8c7.2-5.5,16.2-8.8,25.9-8.8c9.8,0,18.7,3.3,25.9,8.8c-7.3,9.3-11.6,21-11.6,33.8
	c0,12.7,4.3,24.4,11.6,33.8c-7.2,5.5-16.2,8.8-25.9,8.8C258.9,304.5,249.9,301.2,242.7,295.7z M338,304.5c-9.8,0-18.7-3.3-25.9-8.8
	c7.3-9.3,11.6-21,11.6-33.8c0-12.7-4.3-24.4-11.6-33.8c7.2-5.5,16.2-8.8,25.9-8.8c23.5,0,42.6,19.1,42.6,42.6S361.5,304.5,338,304.5
	z"/>
</svg>
