<?xml version="1.0" encoding="iso-8859-1"?>
<!-- Generator: Adobe Illustrator 21.0.0, SVG Export Plug-In . SVG Version: 6.00 Build 0)  -->
<svg xmlns="http://www.w3.org/2000/svg" xmlns:xlink="http://www.w3.org/1999/xlink" version="1.1" id="Capa_1" x="0px" y="0px" viewBox="0 0 512 512" style="enable-background:new 0 0 512 512;" xml:space="preserve" width="512" height="512">
<g>
	<path d="M256,121c-41.353,0-75,33.647-75,75s33.647,75,75,75s75-33.647,75-75S297.353,121,256,121z"/>
	<path d="M435.766,186.815l-6.563-7.236c-4.146-4.556-5.083-11.089-2.402-16.611l4.277-8.804c5.859-12.114,6.006-26.074,0.425-38.32   c-5.61-12.246-16.26-21.27-29.253-24.756l-9.419-2.534c-5.947-1.597-10.269-6.592-11.001-12.7l-1.172-9.683   c-1.611-13.374-9.038-29.044-20.347-36.31c-11.323-7.295-25.181-9.126-37.969-5.024l-9.331,2.959   c-5.918,1.86-12.173,0.029-16.113-4.731l-6.226-7.529c-17.168-20.713-52.178-20.713-69.346,0l-6.226,7.529   c-3.955,4.731-10.254,6.577-16.128,4.731l-9.287-2.944c-12.803-4.146-26.675-2.271-37.983,4.995   c-11.323,7.28-18.75,22.951-20.361,36.31l-1.172,9.712c-0.732,6.094-5.054,11.089-10.972,12.686l-9.448,2.534   c-12.993,3.486-23.643,12.51-29.268,24.771c-5.566,12.231-5.42,26.191,0.454,38.32l4.263,8.789   c2.681,5.522,1.743,12.056-2.402,16.611l-6.548,7.236c-9.053,9.976-13.14,23.335-11.235,36.65   c1.919,13.315,9.609,24.976,21.094,31.992l8.35,5.098c5.244,3.208,7.969,9.199,6.958,15.264l-1.611,9.653   c-2.212,13.286,1.582,26.733,10.386,36.87c8.789,10.166,21.035,15.791,35.024,15.527l9.771-0.22   c6.401,0.454,11.719,3.428,14.136,9.067l3.853,8.979c5.317,12.363,15.762,21.636,28.667,25.415   c12.876,3.779,26.704,1.641,37.866-5.874l8.115-5.479c5.054-3.413,11.66-3.457,16.772,0.015l8.101,5.449   c7.529,5.098,16.274,7.734,25.137,7.734c4.263,0,8.54-0.601,12.715-1.831c12.92-3.794,23.364-13.066,28.682-25.43l3.853-8.979   c2.432-5.64,7.881-8.73,14.136-9.067l9.771,0.22c12.612-0.293,26.221-5.347,35.01-15.513c8.818-10.151,12.612-23.599,10.4-36.899   l-1.611-9.639c-1.011-6.064,1.714-12.056,6.973-15.264l8.32-5.098c11.499-7.017,19.189-18.677,21.108-31.992   C448.891,210.15,444.804,196.791,435.766,186.815z M256,301c-57.891,0-105-47.109-105-105S198.109,91,256,91s105,47.109,105,105   S313.891,301,256,301z"/>
	<path d="M193.29,511.806c5.127-0.835,9.463-4.263,11.455-9.067l39.245-96.757c-16.245,7.09-31.789,9.498-50.803,3.915   c-4.38-1.282-8.459-3.179-12.464-5.189l-29.097,67.901l27.924,34.217C182.987,510.768,188.207,512.637,193.29,511.806z"/>
	<path d="M102.732,355.034l-36.561,88.29c-1.992,4.805-1.348,10.298,1.685,14.517c3.047,4.204,7.881,6.519,13.242,6.182   l42.885-3.045l32.487-75.809c-4.292-5.266-8.139-10.924-10.919-17.313C129.3,367.815,114.915,363.17,102.732,355.034z"/>
	<path d="M318.798,409.911c-19.025,5.61-34.737,3.104-50.786-3.924l39.243,96.751c1.992,4.805,6.328,8.232,11.455,9.067   c5.078,0.829,10.298-1.033,13.74-4.98l27.927-34.223l-29.097-67.896C327.27,406.721,323.185,408.622,318.798,409.911z"/>
	<path d="M430.902,464.022c5.347,0.337,10.181-1.978,13.242-6.182c3.032-4.219,3.677-9.712,1.685-14.517l-36.658-88.526   c-12.112,7.844-26.611,12.708-41.682,13.057l-1.025-0.015c-2.785,6.394-6.634,12.056-10.93,17.325l32.49,75.813L430.902,464.022z"/>
</g>















</svg>
